<?xml version="1.0" encoding="utf-8" standalone="no"?>
<!DOCTYPE svg PUBLIC "-//W3C//DTD SVG 1.1//EN"
  "http://www.w3.org/Graphics/SVG/1.1/DTD/svg11.dtd">
<svg xmlns:xlink="http://www.w3.org/1999/xlink" width="432pt" height="288pt" viewBox="0 0 432 288" xmlns="http://www.w3.org/2000/svg" version="1.1">
 <metadata>
  <rdf:RDF xmlns:dc="http://purl.org/dc/elements/1.1/" xmlns:cc="http://creativecommons.org/ns#" xmlns:rdf="http://www.w3.org/1999/02/22-rdf-syntax-ns#">
   <cc:Work>
    <dc:type rdf:resource="http://purl.org/dc/dcmitype/StillImage"/>
    <dc:date>2025-09-03T16:40:38.477472</dc:date>
    <dc:format>image/svg+xml</dc:format>
    <dc:creator>
     <cc:Agent>
      <dc:title>Matplotlib v3.10.5, https://matplotlib.org/</dc:title>
     </cc:Agent>
    </dc:creator>
   </cc:Work>
  </rdf:RDF>
 </metadata>
 <defs>
  <style type="text/css">*{stroke-linejoin: round; stroke-linecap: butt}</style>
 </defs>
 <g id="figure_1">
  <g id="patch_1">
   <path d="M 0 288 
L 432 288 
L 432 0 
L 0 0 
z
" style="fill: #ffffff"/>
  </g>
  <g id="axes_1">
   <g id="patch_2">
    <path d="M 63.92 233.44 
L 415.8 233.44 
L 415.8 34.5075 
L 63.92 34.5075 
z
" style="fill: #ffffff"/>
   </g>
   <g id="matplotlib.axis_1">
    <g id="xtick_1">
     <g id="line2d_1">
      <path d="M 79.914545 233.44 
L 79.914545 34.5075 
" clip-path="url(#p9f7d736e5e)" style="fill: none; stroke-dasharray: 2.96,1.28; stroke-dashoffset: 0; stroke: #b0b0b0; stroke-opacity: 0.4; stroke-width: 0.8"/>
     </g>
     <g id="line2d_2">
      <defs>
       <path id="m3cc8d9f691" d="M 0 0 
L 0 3.5 
" style="stroke: #000000; stroke-width: 0.8"/>
      </defs>
      <g>
       <use xlink:href="#m3cc8d9f691" x="79.914545" y="233.44" style="stroke: #000000; stroke-width: 0.8"/>
      </g>
     </g>
     <g id="text_1">
      <!-- 0 -->
      <g transform="translate(75.460795 251.077813) scale(0.14 -0.14)">
       <defs>
        <path id="DejaVuSerif-30" d="M 2034 219 
Q 2513 219 2750 744 
Q 2988 1269 2988 2328 
Q 2988 3391 2750 3916 
Q 2513 4441 2034 4441 
Q 1556 4441 1318 3916 
Q 1081 3391 1081 2328 
Q 1081 1269 1318 744 
Q 1556 219 2034 219 
z
M 2034 -91 
Q 1275 -91 848 546 
Q 422 1184 422 2328 
Q 422 3475 848 4112 
Q 1275 4750 2034 4750 
Q 2797 4750 3222 4112 
Q 3647 3475 3647 2328 
Q 3647 1184 3222 546 
Q 2797 -91 2034 -91 
z
" transform="scale(0.015625)"/>
       </defs>
       <use xlink:href="#DejaVuSerif-30"/>
      </g>
     </g>
    </g>
    <g id="xtick_2">
     <g id="line2d_3">
      <path d="M 129.8975 233.44 
L 129.8975 34.5075 
" clip-path="url(#p9f7d736e5e)" style="fill: none; stroke-dasharray: 2.96,1.28; stroke-dashoffset: 0; stroke: #b0b0b0; stroke-opacity: 0.4; stroke-width: 0.8"/>
     </g>
     <g id="line2d_4">
      <g>
       <use xlink:href="#m3cc8d9f691" x="129.8975" y="233.44" style="stroke: #000000; stroke-width: 0.8"/>
      </g>
     </g>
     <g id="text_2">
      <!-- 200 -->
      <g transform="translate(116.53625 251.077813) scale(0.14 -0.14)">
       <defs>
        <path id="DejaVuSerif-32" d="M 819 3553 
L 469 3553 
L 469 4384 
Q 803 4563 1142 4656 
Q 1481 4750 1806 4750 
Q 2534 4750 2956 4397 
Q 3378 4044 3378 3438 
Q 3378 2753 2422 1800 
Q 2347 1728 2309 1691 
L 1131 513 
L 3078 513 
L 3078 1088 
L 3444 1088 
L 3444 0 
L 434 0 
L 434 341 
L 1850 1753 
Q 2319 2222 2519 2614 
Q 2719 3006 2719 3438 
Q 2719 3909 2473 4175 
Q 2228 4441 1797 4441 
Q 1350 4441 1106 4219 
Q 863 3997 819 3553 
z
" transform="scale(0.015625)"/>
       </defs>
       <use xlink:href="#DejaVuSerif-32"/>
       <use xlink:href="#DejaVuSerif-30" transform="translate(63.623047 0)"/>
       <use xlink:href="#DejaVuSerif-30" transform="translate(127.246094 0)"/>
      </g>
     </g>
    </g>
    <g id="xtick_3">
     <g id="line2d_5">
      <path d="M 179.880455 233.44 
L 179.880455 34.5075 
" clip-path="url(#p9f7d736e5e)" style="fill: none; stroke-dasharray: 2.96,1.28; stroke-dashoffset: 0; stroke: #b0b0b0; stroke-opacity: 0.4; stroke-width: 0.8"/>
     </g>
     <g id="line2d_6">
      <g>
       <use xlink:href="#m3cc8d9f691" x="179.880455" y="233.44" style="stroke: #000000; stroke-width: 0.8"/>
      </g>
     </g>
     <g id="text_3">
      <!-- 400 -->
      <g transform="translate(166.519205 251.077813) scale(0.14 -0.14)">
       <defs>
        <path id="DejaVuSerif-34" d="M 2234 1581 
L 2234 4063 
L 641 1581 
L 2234 1581 
z
M 3609 0 
L 1484 0 
L 1484 331 
L 2234 331 
L 2234 1247 
L 197 1247 
L 197 1588 
L 2241 4750 
L 2859 4750 
L 2859 1581 
L 3750 1581 
L 3750 1247 
L 2859 1247 
L 2859 331 
L 3609 331 
L 3609 0 
z
" transform="scale(0.015625)"/>
       </defs>
       <use xlink:href="#DejaVuSerif-34"/>
       <use xlink:href="#DejaVuSerif-30" transform="translate(63.623047 0)"/>
       <use xlink:href="#DejaVuSerif-30" transform="translate(127.246094 0)"/>
      </g>
     </g>
    </g>
    <g id="xtick_4">
     <g id="line2d_7">
      <path d="M 229.863409 233.44 
L 229.863409 34.5075 
" clip-path="url(#p9f7d736e5e)" style="fill: none; stroke-dasharray: 2.96,1.28; stroke-dashoffset: 0; stroke: #b0b0b0; stroke-opacity: 0.4; stroke-width: 0.8"/>
     </g>
     <g id="line2d_8">
      <g>
       <use xlink:href="#m3cc8d9f691" x="229.863409" y="233.44" style="stroke: #000000; stroke-width: 0.8"/>
      </g>
     </g>
     <g id="text_4">
      <!-- 600 -->
      <g transform="translate(216.502159 251.077813) scale(0.14 -0.14)">
       <defs>
        <path id="DejaVuSerif-36" d="M 2094 219 
Q 2534 219 2771 542 
Q 3009 866 3009 1472 
Q 3009 2078 2771 2401 
Q 2534 2725 2094 2725 
Q 1647 2725 1412 2412 
Q 1178 2100 1178 1509 
Q 1178 888 1415 553 
Q 1653 219 2094 219 
z
M 1075 2569 
Q 1288 2803 1556 2918 
Q 1825 3034 2163 3034 
Q 2859 3034 3264 2615 
Q 3669 2197 3669 1472 
Q 3669 763 3233 336 
Q 2797 -91 2069 -91 
Q 1278 -91 853 498 
Q 428 1088 428 2181 
Q 428 3406 931 4078 
Q 1434 4750 2350 4750 
Q 2597 4750 2869 4703 
Q 3141 4656 3425 4563 
L 3425 3794 
L 3072 3794 
Q 3034 4109 2831 4275 
Q 2628 4441 2284 4441 
Q 1678 4441 1381 3981 
Q 1084 3522 1075 2569 
z
" transform="scale(0.015625)"/>
       </defs>
       <use xlink:href="#DejaVuSerif-36"/>
       <use xlink:href="#DejaVuSerif-30" transform="translate(63.623047 0)"/>
       <use xlink:href="#DejaVuSerif-30" transform="translate(127.246094 0)"/>
      </g>
     </g>
    </g>
    <g id="xtick_5">
     <g id="line2d_9">
      <path d="M 279.846364 233.44 
L 279.846364 34.5075 
" clip-path="url(#p9f7d736e5e)" style="fill: none; stroke-dasharray: 2.96,1.28; stroke-dashoffset: 0; stroke: #b0b0b0; stroke-opacity: 0.4; stroke-width: 0.8"/>
     </g>
     <g id="line2d_10">
      <g>
       <use xlink:href="#m3cc8d9f691" x="279.846364" y="233.44" style="stroke: #000000; stroke-width: 0.8"/>
      </g>
     </g>
     <g id="text_5">
      <!-- 800 -->
      <g transform="translate(266.485114 251.077813) scale(0.14 -0.14)">
       <defs>
        <path id="DejaVuSerif-38" d="M 2981 1275 
Q 2981 1775 2732 2051 
Q 2484 2328 2034 2328 
Q 1584 2328 1336 2051 
Q 1088 1775 1088 1275 
Q 1088 772 1336 495 
Q 1584 219 2034 219 
Q 2484 219 2732 495 
Q 2981 772 2981 1275 
z
M 2853 3541 
Q 2853 3966 2637 4203 
Q 2422 4441 2034 4441 
Q 1650 4441 1433 4203 
Q 1216 3966 1216 3541 
Q 1216 3113 1433 2875 
Q 1650 2638 2034 2638 
Q 2422 2638 2637 2875 
Q 2853 3113 2853 3541 
z
M 2516 2484 
Q 3047 2413 3344 2092 
Q 3641 1772 3641 1275 
Q 3641 619 3225 264 
Q 2809 -91 2034 -91 
Q 1263 -91 845 264 
Q 428 619 428 1275 
Q 428 1772 725 2092 
Q 1022 2413 1556 2484 
Q 1084 2569 832 2842 
Q 581 3116 581 3541 
Q 581 4103 968 4426 
Q 1356 4750 2034 4750 
Q 2713 4750 3100 4426 
Q 3488 4103 3488 3541 
Q 3488 3116 3236 2842 
Q 2984 2569 2516 2484 
z
" transform="scale(0.015625)"/>
       </defs>
       <use xlink:href="#DejaVuSerif-38"/>
       <use xlink:href="#DejaVuSerif-30" transform="translate(63.623047 0)"/>
       <use xlink:href="#DejaVuSerif-30" transform="translate(127.246094 0)"/>
      </g>
     </g>
    </g>
    <g id="xtick_6">
     <g id="line2d_11">
      <path d="M 329.829318 233.44 
L 329.829318 34.5075 
" clip-path="url(#p9f7d736e5e)" style="fill: none; stroke-dasharray: 2.96,1.28; stroke-dashoffset: 0; stroke: #b0b0b0; stroke-opacity: 0.4; stroke-width: 0.8"/>
     </g>
     <g id="line2d_12">
      <g>
       <use xlink:href="#m3cc8d9f691" x="329.829318" y="233.44" style="stroke: #000000; stroke-width: 0.8"/>
      </g>
     </g>
     <g id="text_6">
      <!-- 1000 -->
      <g transform="translate(312.014318 251.077813) scale(0.14 -0.14)">
       <defs>
        <path id="DejaVuSerif-31" d="M 909 0 
L 909 331 
L 1722 331 
L 1722 4213 
L 781 3603 
L 781 4013 
L 1919 4750 
L 2350 4750 
L 2350 331 
L 3163 331 
L 3163 0 
L 909 0 
z
" transform="scale(0.015625)"/>
       </defs>
       <use xlink:href="#DejaVuSerif-31"/>
       <use xlink:href="#DejaVuSerif-30" transform="translate(63.623047 0)"/>
       <use xlink:href="#DejaVuSerif-30" transform="translate(127.246094 0)"/>
       <use xlink:href="#DejaVuSerif-30" transform="translate(190.869141 0)"/>
      </g>
     </g>
    </g>
    <g id="xtick_7">
     <g id="line2d_13">
      <path d="M 379.812273 233.44 
L 379.812273 34.5075 
" clip-path="url(#p9f7d736e5e)" style="fill: none; stroke-dasharray: 2.96,1.28; stroke-dashoffset: 0; stroke: #b0b0b0; stroke-opacity: 0.4; stroke-width: 0.8"/>
     </g>
     <g id="line2d_14">
      <g>
       <use xlink:href="#m3cc8d9f691" x="379.812273" y="233.44" style="stroke: #000000; stroke-width: 0.8"/>
      </g>
     </g>
     <g id="text_7">
      <!-- 1200 -->
      <g transform="translate(361.997273 251.077813) scale(0.14 -0.14)">
       <use xlink:href="#DejaVuSerif-31"/>
       <use xlink:href="#DejaVuSerif-32" transform="translate(63.623047 0)"/>
       <use xlink:href="#DejaVuSerif-30" transform="translate(127.246094 0)"/>
       <use xlink:href="#DejaVuSerif-30" transform="translate(190.869141 0)"/>
      </g>
     </g>
    </g>
    <g id="text_8">
     <!-- Training steps -->
     <g transform="translate(179.627969 269.387031) scale(0.15 -0.15)">
      <defs>
       <path id="DejaVuSerif-Bold-54" d="M 1159 0 
L 1159 378 
L 1778 378 
L 1778 4238 
L 500 4238 
L 500 3500 
L 72 3500 
L 72 4666 
L 4697 4666 
L 4697 3500 
L 4275 3500 
L 4275 4238 
L 2988 4238 
L 2988 378 
L 3609 378 
L 3609 0 
L 1159 0 
z
" transform="scale(0.015625)"/>
       <path id="DejaVuSerif-Bold-72" d="M 3438 3359 
L 3438 2369 
L 3084 2369 
Q 3066 2634 2941 2764 
Q 2816 2894 2578 2894 
Q 2216 2894 2006 2575 
Q 1797 2256 1797 1691 
L 1797 378 
L 2400 378 
L 2400 0 
L 219 0 
L 219 378 
L 691 378 
L 691 2944 
L 184 2944 
L 184 3322 
L 1797 3322 
L 1797 2731 
Q 1959 3078 2226 3245 
Q 2494 3413 2881 3413 
Q 2978 3413 3117 3398 
Q 3256 3384 3438 3359 
z
" transform="scale(0.015625)"/>
       <path id="DejaVuSerif-Bold-61" d="M 3525 2041 
L 3525 378 
L 4000 378 
L 4000 0 
L 2419 0 
L 2419 422 
Q 2200 159 1931 34 
Q 1663 -91 1319 -91 
Q 809 -91 536 182 
Q 263 456 263 966 
Q 263 1525 655 1803 
Q 1047 2081 1838 2081 
L 2419 2081 
L 2419 2278 
Q 2419 2681 2228 2873 
Q 2038 3066 1638 3066 
Q 1306 3066 1126 2930 
Q 947 2794 872 2484 
L 519 2484 
L 519 3200 
Q 816 3306 1134 3359 
Q 1453 3413 1806 3413 
Q 2697 3413 3111 3081 
Q 3525 2750 3525 2041 
z
M 2419 1044 
L 2419 1709 
L 2003 1709 
Q 1694 1709 1528 1540 
Q 1363 1372 1363 1056 
Q 1363 741 1483 584 
Q 1603 428 1850 428 
Q 2106 428 2262 597 
Q 2419 766 2419 1044 
z
" transform="scale(0.015625)"/>
       <path id="DejaVuSerif-Bold-69" d="M 588 4263 
Q 588 4516 763 4689 
Q 938 4863 1191 4863 
Q 1438 4863 1611 4689 
Q 1784 4516 1784 4263 
Q 1784 4016 1611 3842 
Q 1438 3669 1191 3669 
Q 938 3669 763 3841 
Q 588 4013 588 4263 
z
M 1797 378 
L 2272 378 
L 2272 0 
L 219 0 
L 219 378 
L 691 378 
L 691 2944 
L 219 2944 
L 219 3322 
L 1797 3322 
L 1797 378 
z
" transform="scale(0.015625)"/>
       <path id="DejaVuSerif-Bold-6e" d="M 219 0 
L 219 378 
L 691 378 
L 691 2944 
L 219 2944 
L 219 3322 
L 1797 3322 
L 1797 2853 
Q 1997 3150 2253 3281 
Q 2509 3413 2900 3413 
Q 3459 3413 3745 3083 
Q 4031 2753 4031 2113 
L 4031 378 
L 4506 378 
L 4506 0 
L 2522 0 
L 2522 378 
L 2925 378 
L 2925 2144 
Q 2925 2566 2817 2730 
Q 2709 2894 2444 2894 
Q 2109 2894 1953 2648 
Q 1797 2403 1797 1869 
L 1797 378 
L 2203 378 
L 2203 0 
L 219 0 
z
" transform="scale(0.015625)"/>
       <path id="DejaVuSerif-Bold-67" d="M 3853 2944 
L 3853 44 
Q 3853 -656 3354 -1039 
Q 2856 -1422 1947 -1422 
Q 1616 -1422 1275 -1370 
Q 934 -1319 575 -1216 
L 575 -422 
L 928 -422 
Q 975 -750 1192 -909 
Q 1409 -1069 1813 -1069 
Q 2325 -1069 2536 -823 
Q 2747 -578 2747 44 
L 2747 422 
Q 2606 163 2367 36 
Q 2128 -91 1778 -91 
Q 1072 -91 667 378 
Q 263 847 263 1663 
Q 263 2481 667 2947 
Q 1072 3413 1778 3413 
Q 2128 3413 2367 3286 
Q 2606 3159 2747 2900 
L 2747 3322 
L 4325 3322 
L 4325 2944 
L 3853 2944 
z
M 2747 1825 
Q 2747 2406 2597 2665 
Q 2447 2925 2119 2925 
Q 1775 2925 1636 2651 
Q 1497 2378 1497 1663 
Q 1497 947 1637 672 
Q 1778 397 2119 397 
Q 2447 397 2597 656 
Q 2747 916 2747 1497 
L 2747 1825 
z
" transform="scale(0.015625)"/>
       <path id="DejaVuSerif-Bold-20" transform="scale(0.015625)"/>
       <path id="DejaVuSerif-Bold-73" d="M 300 97 
L 300 1025 
L 653 1025 
Q 697 653 931 458 
Q 1166 263 1569 263 
Q 1906 263 2086 380 
Q 2266 497 2266 716 
Q 2266 916 2152 1025 
Q 2038 1134 1709 1216 
L 1253 1331 
Q 738 1459 506 1698 
Q 275 1938 275 2344 
Q 275 2884 650 3148 
Q 1025 3413 1806 3413 
Q 2100 3413 2433 3364 
Q 2766 3316 3169 3213 
L 3169 2375 
L 2816 2375 
Q 2788 2716 2573 2887 
Q 2359 3059 1959 3059 
Q 1622 3059 1448 2951 
Q 1275 2844 1275 2638 
Q 1275 2469 1375 2372 
Q 1475 2275 1734 2209 
L 2188 2094 
Q 2841 1928 3091 1684 
Q 3341 1441 3341 1006 
Q 3341 444 2939 176 
Q 2538 -91 1691 -91 
Q 1381 -91 1034 -44 
Q 688 3 300 97 
z
" transform="scale(0.015625)"/>
       <path id="DejaVuSerif-Bold-74" d="M 634 2944 
L 153 2944 
L 153 3322 
L 634 3322 
L 634 4353 
L 1741 4353 
L 1741 3322 
L 2663 3322 
L 2663 2944 
L 1741 2944 
L 1741 909 
Q 1741 475 1809 369 
Q 1878 263 2059 263 
Q 2259 263 2356 397 
Q 2453 531 2459 813 
L 2925 813 
Q 2897 313 2651 111 
Q 2406 -91 1806 -91 
Q 1122 -91 878 123 
Q 634 338 634 909 
L 634 2944 
z
" transform="scale(0.015625)"/>
       <path id="DejaVuSerif-Bold-65" d="M 2566 1875 
Q 2566 2531 2444 2795 
Q 2322 3059 2028 3059 
Q 1744 3059 1620 2800 
Q 1497 2541 1497 1931 
L 1497 1875 
L 2566 1875 
z
M 3781 1503 
L 1497 1503 
L 1497 1478 
Q 1497 834 1690 548 
Q 1884 263 2316 263 
Q 2675 263 2897 453 
Q 3119 644 3181 1006 
L 3700 1006 
Q 3566 441 3166 175 
Q 2766 -91 2047 -91 
Q 1184 -91 723 364 
Q 263 819 263 1663 
Q 263 2488 734 2950 
Q 1206 3413 2047 3413 
Q 2872 3413 3312 2927 
Q 3753 2441 3781 1503 
z
" transform="scale(0.015625)"/>
       <path id="DejaVuSerif-Bold-70" d="M 1728 1825 
L 1728 1497 
Q 1728 916 1876 656 
Q 2025 397 2356 397 
Q 2697 397 2836 672 
Q 2975 947 2975 1663 
Q 2975 2378 2836 2651 
Q 2697 2925 2356 2925 
Q 2025 2925 1876 2665 
Q 1728 2406 1728 1825 
z
M 622 2944 
L 147 2944 
L 147 3322 
L 1728 3322 
L 1728 2900 
Q 1869 3159 2106 3286 
Q 2344 3413 2694 3413 
Q 3403 3413 3811 2945 
Q 4219 2478 4219 1663 
Q 4219 847 3811 378 
Q 3403 -91 2694 -91 
Q 2344 -91 2106 36 
Q 1869 163 1728 422 
L 1728 -953 
L 2241 -953 
L 2241 -1331 
L 147 -1331 
L 147 -953 
L 622 -953 
L 622 2944 
z
" transform="scale(0.015625)"/>
      </defs>
      <use xlink:href="#DejaVuSerif-Bold-54"/>
      <use xlink:href="#DejaVuSerif-Bold-72" transform="translate(67.164062 0)"/>
      <use xlink:href="#DejaVuSerif-Bold-61" transform="translate(119.849609 0)"/>
      <use xlink:href="#DejaVuSerif-Bold-69" transform="translate(184.644531 0)"/>
      <use xlink:href="#DejaVuSerif-Bold-6e" transform="translate(222.632812 0)"/>
      <use xlink:href="#DejaVuSerif-Bold-69" transform="translate(295.337891 0)"/>
      <use xlink:href="#DejaVuSerif-Bold-6e" transform="translate(333.326172 0)"/>
      <use xlink:href="#DejaVuSerif-Bold-67" transform="translate(406.03125 0)"/>
      <use xlink:href="#DejaVuSerif-Bold-20" transform="translate(475.953125 0)"/>
      <use xlink:href="#DejaVuSerif-Bold-73" transform="translate(510.767578 0)"/>
      <use xlink:href="#DejaVuSerif-Bold-74" transform="translate(567.066406 0)"/>
      <use xlink:href="#DejaVuSerif-Bold-65" transform="translate(613.257812 0)"/>
      <use xlink:href="#DejaVuSerif-Bold-70" transform="translate(676.880859 0)"/>
      <use xlink:href="#DejaVuSerif-Bold-73" transform="translate(746.802734 0)"/>
     </g>
    </g>
   </g>
   <g id="matplotlib.axis_2">
    <g id="ytick_1">
     <g id="line2d_15">
      <path d="M 63.92 233.44 
L 415.8 233.44 
" clip-path="url(#p9f7d736e5e)" style="fill: none; stroke-dasharray: 2.96,1.28; stroke-dashoffset: 0; stroke: #b0b0b0; stroke-opacity: 0.4; stroke-width: 0.8"/>
     </g>
     <g id="line2d_16">
      <defs>
       <path id="medbce0f475" d="M 0 0 
L -3.5 0 
" style="stroke: #000000; stroke-width: 0.8"/>
      </defs>
      <g>
       <use xlink:href="#medbce0f475" x="63.92" y="233.44" style="stroke: #000000; stroke-width: 0.8"/>
      </g>
     </g>
     <g id="text_9">
      <!-- 0.4 -->
      <g transform="translate(34.655625 238.758906) scale(0.14 -0.14)">
       <defs>
        <path id="DejaVuSerif-2e" d="M 603 325 
Q 603 500 722 622 
Q 841 744 1019 744 
Q 1191 744 1312 622 
Q 1434 500 1434 325 
Q 1434 153 1312 31 
Q 1191 -91 1019 -91 
Q 841 -91 722 29 
Q 603 150 603 325 
z
" transform="scale(0.015625)"/>
       </defs>
       <use xlink:href="#DejaVuSerif-30"/>
       <use xlink:href="#DejaVuSerif-2e" transform="translate(63.623047 0)"/>
       <use xlink:href="#DejaVuSerif-34" transform="translate(95.410156 0)"/>
      </g>
     </g>
    </g>
    <g id="ytick_2">
     <g id="line2d_17">
      <path d="M 63.92 183.706875 
L 415.8 183.706875 
" clip-path="url(#p9f7d736e5e)" style="fill: none; stroke-dasharray: 2.96,1.28; stroke-dashoffset: 0; stroke: #b0b0b0; stroke-opacity: 0.4; stroke-width: 0.8"/>
     </g>
     <g id="line2d_18">
      <g>
       <use xlink:href="#medbce0f475" x="63.92" y="183.706875" style="stroke: #000000; stroke-width: 0.8"/>
      </g>
     </g>
     <g id="text_10">
      <!-- 0.5 -->
      <g transform="translate(34.655625 189.025781) scale(0.14 -0.14)">
       <defs>
        <path id="DejaVuSerif-35" d="M 3219 4666 
L 3219 4153 
L 1081 4153 
L 1081 2816 
Q 1244 2928 1461 2984 
Q 1678 3041 1947 3041 
Q 2703 3041 3140 2622 
Q 3578 2203 3578 1478 
Q 3578 738 3136 323 
Q 2694 -91 1894 -91 
Q 1572 -91 1234 -12 
Q 897 66 544 225 
L 544 1131 
L 897 1131 
Q 925 688 1179 453 
Q 1434 219 1894 219 
Q 2388 219 2653 544 
Q 2919 869 2919 1478 
Q 2919 2084 2655 2407 
Q 2391 2731 1894 2731 
Q 1613 2731 1398 2631 
Q 1184 2531 1019 2322 
L 750 2322 
L 750 4666 
L 3219 4666 
z
" transform="scale(0.015625)"/>
       </defs>
       <use xlink:href="#DejaVuSerif-30"/>
       <use xlink:href="#DejaVuSerif-2e" transform="translate(63.623047 0)"/>
       <use xlink:href="#DejaVuSerif-35" transform="translate(95.410156 0)"/>
      </g>
     </g>
    </g>
    <g id="ytick_3">
     <g id="line2d_19">
      <path d="M 63.92 133.97375 
L 415.8 133.97375 
" clip-path="url(#p9f7d736e5e)" style="fill: none; stroke-dasharray: 2.96,1.28; stroke-dashoffset: 0; stroke: #b0b0b0; stroke-opacity: 0.4; stroke-width: 0.8"/>
     </g>
     <g id="line2d_20">
      <g>
       <use xlink:href="#medbce0f475" x="63.92" y="133.97375" style="stroke: #000000; stroke-width: 0.8"/>
      </g>
     </g>
     <g id="text_11">
      <!-- 0.6 -->
      <g transform="translate(34.655625 139.292656) scale(0.14 -0.14)">
       <use xlink:href="#DejaVuSerif-30"/>
       <use xlink:href="#DejaVuSerif-2e" transform="translate(63.623047 0)"/>
       <use xlink:href="#DejaVuSerif-36" transform="translate(95.410156 0)"/>
      </g>
     </g>
    </g>
    <g id="ytick_4">
     <g id="line2d_21">
      <path d="M 63.92 84.240625 
L 415.8 84.240625 
" clip-path="url(#p9f7d736e5e)" style="fill: none; stroke-dasharray: 2.96,1.28; stroke-dashoffset: 0; stroke: #b0b0b0; stroke-opacity: 0.4; stroke-width: 0.8"/>
     </g>
     <g id="line2d_22">
      <g>
       <use xlink:href="#medbce0f475" x="63.92" y="84.240625" style="stroke: #000000; stroke-width: 0.8"/>
      </g>
     </g>
     <g id="text_12">
      <!-- 0.7 -->
      <g transform="translate(34.655625 89.559531) scale(0.14 -0.14)">
       <defs>
        <path id="DejaVuSerif-37" d="M 3609 4347 
L 1784 0 
L 1319 0 
L 3059 4153 
L 903 4153 
L 903 3578 
L 538 3578 
L 538 4666 
L 3609 4666 
L 3609 4347 
z
" transform="scale(0.015625)"/>
       </defs>
       <use xlink:href="#DejaVuSerif-30"/>
       <use xlink:href="#DejaVuSerif-2e" transform="translate(63.623047 0)"/>
       <use xlink:href="#DejaVuSerif-37" transform="translate(95.410156 0)"/>
      </g>
     </g>
    </g>
    <g id="ytick_5">
     <g id="line2d_23">
      <path d="M 63.92 34.5075 
L 415.8 34.5075 
" clip-path="url(#p9f7d736e5e)" style="fill: none; stroke-dasharray: 2.96,1.28; stroke-dashoffset: 0; stroke: #b0b0b0; stroke-opacity: 0.4; stroke-width: 0.8"/>
     </g>
     <g id="line2d_24">
      <g>
       <use xlink:href="#medbce0f475" x="63.92" y="34.5075" style="stroke: #000000; stroke-width: 0.8"/>
      </g>
     </g>
     <g id="text_13">
      <!-- 0.8 -->
      <g transform="translate(34.655625 39.826406) scale(0.14 -0.14)">
       <use xlink:href="#DejaVuSerif-30"/>
       <use xlink:href="#DejaVuSerif-2e" transform="translate(63.623047 0)"/>
       <use xlink:href="#DejaVuSerif-38" transform="translate(95.410156 0)"/>
      </g>
     </g>
    </g>
    <g id="text_14">
     <!-- Eval Accuracy -->
     <g transform="translate(27.322813 192.510078) rotate(-90) scale(0.15 -0.15)">
      <defs>
       <path id="DejaVuSerif-Bold-45" d="M 300 0 
L 300 378 
L 897 378 
L 897 4288 
L 300 4288 
L 300 4666 
L 4494 4666 
L 4494 3566 
L 4063 3566 
L 4063 4238 
L 2100 4238 
L 2100 2741 
L 3322 2741 
L 3322 3334 
L 3750 3334 
L 3750 1722 
L 3322 1722 
L 3322 2316 
L 2100 2316 
L 2100 428 
L 4122 428 
L 4122 1100 
L 4550 1100 
L 4550 0 
L 300 0 
z
" transform="scale(0.015625)"/>
       <path id="DejaVuSerif-Bold-76" d="M 1428 0 
L 250 2944 
L -116 2944 
L -116 3322 
L 1791 3322 
L 1791 2944 
L 1388 2944 
L 2228 844 
L 3066 2944 
L 2631 2944 
L 2631 3322 
L 3878 3322 
L 3878 2944 
L 3494 2944 
L 2316 0 
L 1428 0 
z
" transform="scale(0.015625)"/>
       <path id="DejaVuSerif-Bold-6c" d="M 1797 378 
L 2272 378 
L 2272 0 
L 219 0 
L 219 378 
L 691 378 
L 691 4488 
L 219 4488 
L 219 4863 
L 1797 4863 
L 1797 378 
z
" transform="scale(0.015625)"/>
       <path id="DejaVuSerif-Bold-41" d="M -50 0 
L -50 378 
L 331 378 
L 2088 4666 
L 2834 4666 
L 4594 378 
L 5038 378 
L 5038 0 
L 2853 0 
L 2853 378 
L 3309 378 
L 2925 1331 
L 1172 1331 
L 781 378 
L 1338 378 
L 1338 0 
L -50 0 
z
M 1325 1709 
L 2772 1709 
L 2053 3494 
L 1325 1709 
z
" transform="scale(0.015625)"/>
       <path id="DejaVuSerif-Bold-63" d="M 3609 1038 
Q 3491 469 3123 189 
Q 2756 -91 2125 -91 
Q 1238 -91 750 368 
Q 263 828 263 1663 
Q 263 2488 744 2950 
Q 1225 3413 2081 3413 
Q 2428 3413 2781 3347 
Q 3134 3281 3500 3150 
L 3500 2228 
L 3150 2228 
Q 3100 2650 2903 2854 
Q 2706 3059 2350 3059 
Q 1888 3059 1692 2746 
Q 1497 2434 1497 1663 
Q 1497 909 1687 586 
Q 1878 263 2309 263 
Q 2644 263 2845 463 
Q 3047 663 3091 1038 
L 3609 1038 
z
" transform="scale(0.015625)"/>
       <path id="DejaVuSerif-Bold-75" d="M 3963 3322 
L 3963 378 
L 4434 378 
L 4434 0 
L 2853 0 
L 2853 469 
Q 2656 172 2400 40 
Q 2144 -91 1753 -91 
Q 1194 -91 908 239 
Q 622 569 622 1209 
L 622 2944 
L 147 2944 
L 147 3322 
L 1728 3322 
L 1728 1381 
Q 1728 763 1831 595 
Q 1934 428 2209 428 
Q 2544 428 2698 675 
Q 2853 922 2853 1459 
L 2853 2944 
L 2450 2944 
L 2450 3322 
L 3963 3322 
z
" transform="scale(0.015625)"/>
       <path id="DejaVuSerif-Bold-79" d="M 1997 -750 
Q 1847 -1116 1634 -1269 
Q 1422 -1422 1063 -1422 
Q 909 -1422 721 -1387 
Q 534 -1353 313 -1288 
L 313 -594 
L 666 -597 
Q 675 -838 779 -953 
Q 884 -1069 1094 -1069 
Q 1297 -1069 1422 -958 
Q 1547 -847 1672 -538 
L 1722 -422 
L 275 2944 
L -84 2944 
L -84 3322 
L 1831 3322 
L 1831 2944 
L 1434 2944 
L 2278 978 
L 3066 2944 
L 2625 2944 
L 2625 3322 
L 3872 3322 
L 3872 2944 
L 3469 2944 
L 1997 -750 
z
" transform="scale(0.015625)"/>
      </defs>
      <use xlink:href="#DejaVuSerif-Bold-45"/>
      <use xlink:href="#DejaVuSerif-Bold-76" transform="translate(76.220703 0)"/>
      <use xlink:href="#DejaVuSerif-Bold-61" transform="translate(134.326172 0)"/>
      <use xlink:href="#DejaVuSerif-Bold-6c" transform="translate(199.121094 0)"/>
      <use xlink:href="#DejaVuSerif-Bold-20" transform="translate(237.109375 0)"/>
      <use xlink:href="#DejaVuSerif-Bold-41" transform="translate(271.923828 0)"/>
      <use xlink:href="#DejaVuSerif-Bold-63" transform="translate(349.511719 0)"/>
      <use xlink:href="#DejaVuSerif-Bold-63" transform="translate(410.400391 0)"/>
      <use xlink:href="#DejaVuSerif-Bold-75" transform="translate(471.289062 0)"/>
      <use xlink:href="#DejaVuSerif-Bold-72" transform="translate(543.994141 0)"/>
      <use xlink:href="#DejaVuSerif-Bold-61" transform="translate(596.679688 0)"/>
      <use xlink:href="#DejaVuSerif-Bold-63" transform="translate(661.474609 0)"/>
      <use xlink:href="#DejaVuSerif-Bold-79" transform="translate(722.363281 0)"/>
     </g>
    </g>
   </g>
   <g id="line2d_25">
    <path d="M 79.914545 219.452559 
L 95.909091 193.964332 
L 111.903636 151.380344 
L 127.898182 119.053812 
L 143.892727 102.268883 
L 159.887273 91.700594 
L 175.881818 90.146434 
L 191.876364 84.551457 
L 207.870909 82.375633 
L 223.865455 90.768098 
L 239.86 119.364645 
L 255.854545 198.005148 
L 267.768897 289 
M 277.021724 289 
L 287.843636 223.804207 
L 303.838182 127.757109 
L 319.832727 85.483953 
L 335.827273 75.226496 
L 351.821818 175.936074 
L 367.816364 138.63623 
L 383.810909 147.028695 
L 399.805455 140.190391 
" clip-path="url(#p9f7d736e5e)" style="fill: none; stroke: #5894c8; stroke-width: 2; stroke-linecap: square"/>
    <defs>
     <path id="m6556283031" d="M -2 2 
L 2 2 
L 2 -2 
L -2 -2 
z
" style="stroke: #ffffff; stroke-width: 0.8; stroke-linejoin: miter"/>
    </defs>
    <g clip-path="url(#p9f7d736e5e)">
     <use xlink:href="#m6556283031" x="79.914545" y="219.452559" style="fill: #5894c8; stroke: #ffffff; stroke-width: 0.8; stroke-linejoin: miter"/>
     <use xlink:href="#m6556283031" x="95.909091" y="193.964332" style="fill: #5894c8; stroke: #ffffff; stroke-width: 0.8; stroke-linejoin: miter"/>
     <use xlink:href="#m6556283031" x="111.903636" y="151.380344" style="fill: #5894c8; stroke: #ffffff; stroke-width: 0.8; stroke-linejoin: miter"/>
     <use xlink:href="#m6556283031" x="127.898182" y="119.053812" style="fill: #5894c8; stroke: #ffffff; stroke-width: 0.8; stroke-linejoin: miter"/>
     <use xlink:href="#m6556283031" x="143.892727" y="102.268883" style="fill: #5894c8; stroke: #ffffff; stroke-width: 0.8; stroke-linejoin: miter"/>
     <use xlink:href="#m6556283031" x="159.887273" y="91.700594" style="fill: #5894c8; stroke: #ffffff; stroke-width: 0.8; stroke-linejoin: miter"/>
     <use xlink:href="#m6556283031" x="175.881818" y="90.146434" style="fill: #5894c8; stroke: #ffffff; stroke-width: 0.8; stroke-linejoin: miter"/>
     <use xlink:href="#m6556283031" x="191.876364" y="84.551457" style="fill: #5894c8; stroke: #ffffff; stroke-width: 0.8; stroke-linejoin: miter"/>
     <use xlink:href="#m6556283031" x="207.870909" y="82.375633" style="fill: #5894c8; stroke: #ffffff; stroke-width: 0.8; stroke-linejoin: miter"/>
     <use xlink:href="#m6556283031" x="223.865455" y="90.768098" style="fill: #5894c8; stroke: #ffffff; stroke-width: 0.8; stroke-linejoin: miter"/>
     <use xlink:href="#m6556283031" x="239.86" y="119.364645" style="fill: #5894c8; stroke: #ffffff; stroke-width: 0.8; stroke-linejoin: miter"/>
     <use xlink:href="#m6556283031" x="255.854545" y="198.005148" style="fill: #5894c8; stroke: #ffffff; stroke-width: 0.8; stroke-linejoin: miter"/>
     <use xlink:href="#m6556283031" x="271.849091" y="320.162137" style="fill: #5894c8; stroke: #ffffff; stroke-width: 0.8; stroke-linejoin: miter"/>
     <use xlink:href="#m6556283031" x="287.843636" y="223.804207" style="fill: #5894c8; stroke: #ffffff; stroke-width: 0.8; stroke-linejoin: miter"/>
     <use xlink:href="#m6556283031" x="303.838182" y="127.757109" style="fill: #5894c8; stroke: #ffffff; stroke-width: 0.8; stroke-linejoin: miter"/>
     <use xlink:href="#m6556283031" x="319.832727" y="85.483953" style="fill: #5894c8; stroke: #ffffff; stroke-width: 0.8; stroke-linejoin: miter"/>
     <use xlink:href="#m6556283031" x="335.827273" y="75.226496" style="fill: #5894c8; stroke: #ffffff; stroke-width: 0.8; stroke-linejoin: miter"/>
     <use xlink:href="#m6556283031" x="351.821818" y="175.936074" style="fill: #5894c8; stroke: #ffffff; stroke-width: 0.8; stroke-linejoin: miter"/>
     <use xlink:href="#m6556283031" x="367.816364" y="138.63623" style="fill: #5894c8; stroke: #ffffff; stroke-width: 0.8; stroke-linejoin: miter"/>
     <use xlink:href="#m6556283031" x="383.810909" y="147.028695" style="fill: #5894c8; stroke: #ffffff; stroke-width: 0.8; stroke-linejoin: miter"/>
     <use xlink:href="#m6556283031" x="399.805455" y="140.190391" style="fill: #5894c8; stroke: #ffffff; stroke-width: 0.8; stroke-linejoin: miter"/>
    </g>
   </g>
   <g id="line2d_26">
    <path d="M 79.914545 219.452559 
L 95.909091 202.045965 
L 111.903636 167.543609 
L 127.898182 124.648789 
L 143.892727 103.823043 
L 159.887273 83.308129 
L 175.881818 89.52477 
L 191.876364 83.929793 
L 207.870909 82.375633 
L 223.865455 85.483953 
L 239.86 85.794785 
L 255.854545 96.984738 
L 271.849091 103.201379 
L 287.843636 131.797926 
L 303.838182 258.306563 
L 316.78407 289 
" clip-path="url(#p9f7d736e5e)" style="fill: none; stroke: #b66e1a; stroke-width: 2; stroke-linecap: square"/>
    <defs>
     <path id="m5eaad62657" d="M -2 2 
L 2 2 
L 2 -2 
L -2 -2 
z
" style="stroke: #ffffff; stroke-width: 0.8; stroke-linejoin: miter"/>
    </defs>
    <g clip-path="url(#p9f7d736e5e)">
     <use xlink:href="#m5eaad62657" x="79.914545" y="219.452559" style="fill: #b66e1a; stroke: #ffffff; stroke-width: 0.8; stroke-linejoin: miter"/>
     <use xlink:href="#m5eaad62657" x="95.909091" y="202.045965" style="fill: #b66e1a; stroke: #ffffff; stroke-width: 0.8; stroke-linejoin: miter"/>
     <use xlink:href="#m5eaad62657" x="111.903636" y="167.543609" style="fill: #b66e1a; stroke: #ffffff; stroke-width: 0.8; stroke-linejoin: miter"/>
     <use xlink:href="#m5eaad62657" x="127.898182" y="124.648789" style="fill: #b66e1a; stroke: #ffffff; stroke-width: 0.8; stroke-linejoin: miter"/>
     <use xlink:href="#m5eaad62657" x="143.892727" y="103.823043" style="fill: #b66e1a; stroke: #ffffff; stroke-width: 0.8; stroke-linejoin: miter"/>
     <use xlink:href="#m5eaad62657" x="159.887273" y="83.308129" style="fill: #b66e1a; stroke: #ffffff; stroke-width: 0.8; stroke-linejoin: miter"/>
     <use xlink:href="#m5eaad62657" x="175.881818" y="89.52477" style="fill: #b66e1a; stroke: #ffffff; stroke-width: 0.8; stroke-linejoin: miter"/>
     <use xlink:href="#m5eaad62657" x="191.876364" y="83.929793" style="fill: #b66e1a; stroke: #ffffff; stroke-width: 0.8; stroke-linejoin: miter"/>
     <use xlink:href="#m5eaad62657" x="207.870909" y="82.375633" style="fill: #b66e1a; stroke: #ffffff; stroke-width: 0.8; stroke-linejoin: miter"/>
     <use xlink:href="#m5eaad62657" x="223.865455" y="85.483953" style="fill: #b66e1a; stroke: #ffffff; stroke-width: 0.8; stroke-linejoin: miter"/>
     <use xlink:href="#m5eaad62657" x="239.86" y="85.794785" style="fill: #b66e1a; stroke: #ffffff; stroke-width: 0.8; stroke-linejoin: miter"/>
     <use xlink:href="#m5eaad62657" x="255.854545" y="96.984738" style="fill: #b66e1a; stroke: #ffffff; stroke-width: 0.8; stroke-linejoin: miter"/>
     <use xlink:href="#m5eaad62657" x="271.849091" y="103.201379" style="fill: #b66e1a; stroke: #ffffff; stroke-width: 0.8; stroke-linejoin: miter"/>
     <use xlink:href="#m5eaad62657" x="287.843636" y="131.797926" style="fill: #b66e1a; stroke: #ffffff; stroke-width: 0.8; stroke-linejoin: miter"/>
     <use xlink:href="#m5eaad62657" x="303.838182" y="258.306563" style="fill: #b66e1a; stroke: #ffffff; stroke-width: 0.8; stroke-linejoin: miter"/>
     <use xlink:href="#m5eaad62657" x="319.832727" y="296.22807" style="fill: #b66e1a; stroke: #ffffff; stroke-width: 0.8; stroke-linejoin: miter"/>
    </g>
   </g>
   <g id="line2d_27">
    <path d="M 79.914545 219.452559 
L 95.909091 205.775949 
L 111.903636 163.813625 
L 127.898182 132.108758 
L 143.892727 104.444707 
L 159.887273 96.984738 
L 175.881818 83.929793 
L 191.876364 88.281441 
L 207.870909 80.821473 
L 223.865455 86.727281 
L 239.86 89.213938 
L 255.854545 87.659777 
L 271.849091 125.581285 
L 287.843636 175.936074 
L 303.838182 124.027125 
L 319.832727 104.755539 
L 335.827273 77.091488 
L 351.821818 60.306559 
L 367.816364 58.441566 
L 383.810909 64.036543 
L 399.805455 62.482383 
" clip-path="url(#p9f7d736e5e)" style="fill: none; stroke: #c83e4b; stroke-width: 2.5; stroke-linecap: square"/>
    <defs>
     <path id="mf9a4446cd6" d="M -3 3 
L 3 3 
L 3 -3 
L -3 -3 
z
" style="stroke: #ffffff; stroke-width: 0.8; stroke-linejoin: miter"/>
    </defs>
    <g clip-path="url(#p9f7d736e5e)">
     <use xlink:href="#mf9a4446cd6" x="79.914545" y="219.452559" style="fill: #c83e4b; stroke: #ffffff; stroke-width: 0.8; stroke-linejoin: miter"/>
     <use xlink:href="#mf9a4446cd6" x="95.909091" y="205.775949" style="fill: #c83e4b; stroke: #ffffff; stroke-width: 0.8; stroke-linejoin: miter"/>
     <use xlink:href="#mf9a4446cd6" x="111.903636" y="163.813625" style="fill: #c83e4b; stroke: #ffffff; stroke-width: 0.8; stroke-linejoin: miter"/>
     <use xlink:href="#mf9a4446cd6" x="127.898182" y="132.108758" style="fill: #c83e4b; stroke: #ffffff; stroke-width: 0.8; stroke-linejoin: miter"/>
     <use xlink:href="#mf9a4446cd6" x="143.892727" y="104.444707" style="fill: #c83e4b; stroke: #ffffff; stroke-width: 0.8; stroke-linejoin: miter"/>
     <use xlink:href="#mf9a4446cd6" x="159.887273" y="96.984738" style="fill: #c83e4b; stroke: #ffffff; stroke-width: 0.8; stroke-linejoin: miter"/>
     <use xlink:href="#mf9a4446cd6" x="175.881818" y="83.929793" style="fill: #c83e4b; stroke: #ffffff; stroke-width: 0.8; stroke-linejoin: miter"/>
     <use xlink:href="#mf9a4446cd6" x="191.876364" y="88.281441" style="fill: #c83e4b; stroke: #ffffff; stroke-width: 0.8; stroke-linejoin: miter"/>
     <use xlink:href="#mf9a4446cd6" x="207.870909" y="80.821473" style="fill: #c83e4b; stroke: #ffffff; stroke-width: 0.8; stroke-linejoin: miter"/>
     <use xlink:href="#mf9a4446cd6" x="223.865455" y="86.727281" style="fill: #c83e4b; stroke: #ffffff; stroke-width: 0.8; stroke-linejoin: miter"/>
     <use xlink:href="#mf9a4446cd6" x="239.86" y="89.213938" style="fill: #c83e4b; stroke: #ffffff; stroke-width: 0.8; stroke-linejoin: miter"/>
     <use xlink:href="#mf9a4446cd6" x="255.854545" y="87.659777" style="fill: #c83e4b; stroke: #ffffff; stroke-width: 0.8; stroke-linejoin: miter"/>
     <use xlink:href="#mf9a4446cd6" x="271.849091" y="125.581285" style="fill: #c83e4b; stroke: #ffffff; stroke-width: 0.8; stroke-linejoin: miter"/>
     <use xlink:href="#mf9a4446cd6" x="287.843636" y="175.936074" style="fill: #c83e4b; stroke: #ffffff; stroke-width: 0.8; stroke-linejoin: miter"/>
     <use xlink:href="#mf9a4446cd6" x="303.838182" y="124.027125" style="fill: #c83e4b; stroke: #ffffff; stroke-width: 0.8; stroke-linejoin: miter"/>
     <use xlink:href="#mf9a4446cd6" x="319.832727" y="104.755539" style="fill: #c83e4b; stroke: #ffffff; stroke-width: 0.8; stroke-linejoin: miter"/>
     <use xlink:href="#mf9a4446cd6" x="335.827273" y="77.091488" style="fill: #c83e4b; stroke: #ffffff; stroke-width: 0.8; stroke-linejoin: miter"/>
     <use xlink:href="#mf9a4446cd6" x="351.821818" y="60.306559" style="fill: #c83e4b; stroke: #ffffff; stroke-width: 0.8; stroke-linejoin: miter"/>
     <use xlink:href="#mf9a4446cd6" x="367.816364" y="58.441566" style="fill: #c83e4b; stroke: #ffffff; stroke-width: 0.8; stroke-linejoin: miter"/>
     <use xlink:href="#mf9a4446cd6" x="383.810909" y="64.036543" style="fill: #c83e4b; stroke: #ffffff; stroke-width: 0.8; stroke-linejoin: miter"/>
     <use xlink:href="#mf9a4446cd6" x="399.805455" y="62.482383" style="fill: #c83e4b; stroke: #ffffff; stroke-width: 0.8; stroke-linejoin: miter"/>
    </g>
   </g>
   <g id="patch_3">
    <path d="M 63.92 233.44 
L 63.92 34.5075 
" style="fill: none; stroke: #000000; stroke-width: 0.8; stroke-linejoin: miter; stroke-linecap: square"/>
   </g>
   <g id="patch_4">
    <path d="M 415.8 233.44 
L 415.8 34.5075 
" style="fill: none; stroke: #000000; stroke-width: 0.8; stroke-linejoin: miter; stroke-linecap: square"/>
   </g>
   <g id="patch_5">
    <path d="M 63.92 233.44 
L 415.8 233.44 
" style="fill: none; stroke: #000000; stroke-width: 0.8; stroke-linejoin: miter; stroke-linecap: square"/>
   </g>
   <g id="patch_6">
    <path d="M 63.92 34.5075 
L 415.8 34.5075 
" style="fill: none; stroke: #000000; stroke-width: 0.8; stroke-linejoin: miter; stroke-linecap: square"/>
   </g>
   <g id="text_15">
    <!-- Max-1800s Latency (Hetero RL) -->
    <g transform="translate(96.98875 28.5075) scale(0.16 -0.16)">
     <defs>
      <path id="DejaVuSerif-Bold-4d" d="M 269 0 
L 269 378 
L 863 378 
L 863 4288 
L 269 4288 
L 269 4666 
L 2194 4666 
L 3525 1672 
L 4863 4666 
L 6784 4666 
L 6784 4288 
L 6188 4288 
L 6188 378 
L 6784 378 
L 6784 0 
L 4384 0 
L 4384 378 
L 4978 378 
L 4978 3938 
L 3531 684 
L 2741 684 
L 1300 3938 
L 1300 378 
L 1894 378 
L 1894 0 
L 269 0 
z
" transform="scale(0.015625)"/>
      <path id="DejaVuSerif-Bold-78" d="M 2247 2119 
L 2834 2944 
L 2425 2944 
L 2425 3322 
L 3719 3322 
L 3719 2944 
L 3278 2944 
L 2431 1759 
L 3419 378 
L 3859 378 
L 3859 0 
L 1747 0 
L 1747 378 
L 2175 378 
L 1550 1253 
L 922 378 
L 1369 378 
L 1369 0 
L 0 0 
L 0 378 
L 475 378 
L 1356 1619 
L 403 2944 
L 31 2944 
L 31 3322 
L 2059 3322 
L 2059 2944 
L 1656 2944 
L 2247 2119 
z
" transform="scale(0.015625)"/>
      <path id="DejaVuSerif-Bold-2d" d="M 347 2138 
L 2309 2138 
L 2309 1294 
L 347 1294 
L 347 2138 
z
" transform="scale(0.015625)"/>
      <path id="DejaVuSerif-Bold-31" d="M 878 0 
L 878 378 
L 1753 378 
L 1753 4153 
L 781 3578 
L 781 4044 
L 1953 4750 
L 2938 4750 
L 2938 378 
L 3816 378 
L 3816 0 
L 878 0 
z
" transform="scale(0.015625)"/>
      <path id="DejaVuSerif-Bold-38" d="M 2975 2484 
Q 3531 2394 3820 2075 
Q 4109 1756 4109 1241 
Q 4109 597 3623 253 
Q 3138 -91 2222 -91 
Q 1306 -91 818 253 
Q 331 597 331 1241 
Q 331 1756 622 2075 
Q 913 2394 1466 2484 
Q 975 2597 731 2861 
Q 488 3125 488 3531 
Q 488 4125 931 4437 
Q 1375 4750 2222 4750 
Q 3066 4750 3511 4437 
Q 3956 4125 3956 3531 
Q 3956 3125 3711 2861 
Q 3466 2597 2975 2484 
z
M 2747 3519 
Q 2747 4013 2628 4198 
Q 2509 4384 2222 4384 
Q 1931 4384 1814 4198 
Q 1697 4013 1697 3519 
Q 1697 3028 1814 2845 
Q 1931 2663 2222 2663 
Q 2513 2663 2630 2845 
Q 2747 3028 2747 3519 
z
M 2869 1294 
Q 2869 1866 2723 2081 
Q 2578 2297 2222 2297 
Q 1863 2297 1719 2081 
Q 1575 1866 1575 1294 
Q 1575 716 1720 495 
Q 1866 275 2222 275 
Q 2575 275 2722 495 
Q 2869 716 2869 1294 
z
" transform="scale(0.015625)"/>
      <path id="DejaVuSerif-Bold-30" d="M 2228 275 
Q 2603 275 2742 615 
Q 2881 956 2881 2328 
Q 2881 3691 2742 4037 
Q 2603 4384 2228 4384 
Q 1853 4384 1714 4043 
Q 1575 3703 1575 2328 
Q 1575 956 1714 615 
Q 1853 275 2228 275 
z
M 2228 -91 
Q 1294 -91 797 532 
Q 300 1156 300 2328 
Q 300 3500 797 4125 
Q 1294 4750 2228 4750 
Q 3159 4750 3656 4125 
Q 4153 3500 4153 2328 
Q 4153 1156 3656 532 
Q 3159 -91 2228 -91 
z
" transform="scale(0.015625)"/>
      <path id="DejaVuSerif-Bold-4c" d="M 300 0 
L 300 378 
L 897 378 
L 897 4288 
L 300 4288 
L 300 4666 
L 2700 4666 
L 2700 4288 
L 2100 4288 
L 2100 428 
L 3938 428 
L 3938 1166 
L 4359 1166 
L 4359 0 
L 300 0 
z
" transform="scale(0.015625)"/>
      <path id="DejaVuSerif-Bold-28" d="M 2694 -997 
Q 1641 -606 1122 122 
Q 603 850 603 1931 
Q 603 3013 1115 3731 
Q 1628 4450 2694 4863 
L 2694 4488 
Q 2200 4188 1983 3598 
Q 1766 3009 1766 1931 
Q 1766 856 1983 267 
Q 2200 -322 2694 -622 
L 2694 -997 
z
" transform="scale(0.015625)"/>
      <path id="DejaVuSerif-Bold-48" d="M 300 0 
L 300 378 
L 897 378 
L 897 4288 
L 300 4288 
L 300 4666 
L 2700 4666 
L 2700 4288 
L 2100 4288 
L 2100 2719 
L 3956 2719 
L 3956 4288 
L 3359 4288 
L 3359 4666 
L 5759 4666 
L 5759 4288 
L 5159 4288 
L 5159 378 
L 5759 378 
L 5759 0 
L 3359 0 
L 3359 378 
L 3956 378 
L 3956 2291 
L 2100 2291 
L 2100 378 
L 2700 378 
L 2700 0 
L 300 0 
z
" transform="scale(0.015625)"/>
      <path id="DejaVuSerif-Bold-6f" d="M 2138 263 
Q 2488 263 2630 563 
Q 2772 863 2772 1663 
Q 2772 2463 2631 2761 
Q 2491 3059 2138 3059 
Q 1784 3059 1640 2757 
Q 1497 2456 1497 1663 
Q 1497 869 1640 566 
Q 1784 263 2138 263 
z
M 2138 -91 
Q 1259 -91 761 376 
Q 263 844 263 1663 
Q 263 2484 761 2948 
Q 1259 3413 2138 3413 
Q 3019 3413 3516 2948 
Q 4013 2484 4013 1663 
Q 4013 844 3514 376 
Q 3016 -91 2138 -91 
z
" transform="scale(0.015625)"/>
      <path id="DejaVuSerif-Bold-52" d="M 3397 2278 
Q 3675 2238 3865 2094 
Q 4056 1950 4197 1678 
L 4878 378 
L 5356 378 
L 5356 0 
L 3822 0 
L 3078 1409 
Q 2863 1847 2711 1967 
Q 2559 2088 2291 2088 
L 2100 2088 
L 2100 378 
L 2700 378 
L 2700 0 
L 300 0 
L 300 378 
L 897 378 
L 897 4288 
L 300 4288 
L 300 4666 
L 2963 4666 
Q 3775 4666 4217 4339 
Q 4659 4013 4659 3413 
Q 4659 2925 4345 2642 
Q 4031 2359 3397 2278 
z
M 2100 2463 
L 2509 2463 
Q 2947 2463 3183 2700 
Q 3419 2938 3419 3378 
Q 3419 3819 3183 4053 
Q 2947 4288 2509 4288 
L 2100 4288 
L 2100 2463 
z
" transform="scale(0.015625)"/>
      <path id="DejaVuSerif-Bold-29" d="M 325 -997 
L 325 -622 
Q 819 -322 1036 267 
Q 1253 856 1253 1931 
Q 1253 3009 1036 3598 
Q 819 4188 325 4488 
L 325 4863 
Q 1391 4450 1905 3731 
Q 2419 3013 2419 1931 
Q 2419 850 1898 122 
Q 1378 -606 325 -997 
z
" transform="scale(0.015625)"/>
     </defs>
     <use xlink:href="#DejaVuSerif-Bold-4d"/>
     <use xlink:href="#DejaVuSerif-Bold-61" transform="translate(110.693359 0)"/>
     <use xlink:href="#DejaVuSerif-Bold-78" transform="translate(175.488281 0)"/>
     <use xlink:href="#DejaVuSerif-Bold-2d" transform="translate(233.357422 0)"/>
     <use xlink:href="#DejaVuSerif-Bold-31" transform="translate(274.861328 0)"/>
     <use xlink:href="#DejaVuSerif-Bold-38" transform="translate(344.441406 0)"/>
     <use xlink:href="#DejaVuSerif-Bold-30" transform="translate(414.021484 0)"/>
     <use xlink:href="#DejaVuSerif-Bold-30" transform="translate(483.601562 0)"/>
     <use xlink:href="#DejaVuSerif-Bold-73" transform="translate(553.181641 0)"/>
     <use xlink:href="#DejaVuSerif-Bold-20" transform="translate(609.480469 0)"/>
     <use xlink:href="#DejaVuSerif-Bold-4c" transform="translate(644.294922 0)"/>
     <use xlink:href="#DejaVuSerif-Bold-61" transform="translate(714.607422 0)"/>
     <use xlink:href="#DejaVuSerif-Bold-74" transform="translate(779.402344 0)"/>
     <use xlink:href="#DejaVuSerif-Bold-65" transform="translate(825.59375 0)"/>
     <use xlink:href="#DejaVuSerif-Bold-6e" transform="translate(889.216797 0)"/>
     <use xlink:href="#DejaVuSerif-Bold-63" transform="translate(961.921875 0)"/>
     <use xlink:href="#DejaVuSerif-Bold-79" transform="translate(1022.810547 0)"/>
     <use xlink:href="#DejaVuSerif-Bold-20" transform="translate(1080.916016 0)"/>
     <use xlink:href="#DejaVuSerif-Bold-28" transform="translate(1115.730469 0)"/>
     <use xlink:href="#DejaVuSerif-Bold-48" transform="translate(1163.044922 0)"/>
     <use xlink:href="#DejaVuSerif-Bold-65" transform="translate(1257.527344 0)"/>
     <use xlink:href="#DejaVuSerif-Bold-74" transform="translate(1321.150391 0)"/>
     <use xlink:href="#DejaVuSerif-Bold-65" transform="translate(1367.341797 0)"/>
     <use xlink:href="#DejaVuSerif-Bold-72" transform="translate(1430.964844 0)"/>
     <use xlink:href="#DejaVuSerif-Bold-6f" transform="translate(1483.650391 0)"/>
     <use xlink:href="#DejaVuSerif-Bold-20" transform="translate(1550.349609 0)"/>
     <use xlink:href="#DejaVuSerif-Bold-52" transform="translate(1585.164062 0)"/>
     <use xlink:href="#DejaVuSerif-Bold-4c" transform="translate(1668.269531 0)"/>
     <use xlink:href="#DejaVuSerif-Bold-29" transform="translate(1738.582031 0)"/>
    </g>
   </g>
   <g id="legend_1">
    <g id="patch_7">
     <path d="M 138.4772 191.211563 
L 207.167044 191.211563 
Q 209.367044 191.211563 209.367044 189.011563 
L 209.367044 141.67375 
Q 209.367044 139.47375 207.167044 139.47375 
L 138.4772 139.47375 
Q 136.2772 139.47375 136.2772 141.67375 
L 136.2772 189.011563 
Q 136.2772 191.211563 138.4772 191.211563 
z
" style="fill: #ffffff; opacity: 0.4; stroke: #cccccc; stroke-linejoin: miter"/>
    </g>
    <g id="line2d_28">
     <path d="M 140.6772 148.382031 
L 151.6772 148.382031 
L 162.6772 148.382031 
" style="fill: none; stroke: #5894c8; stroke-width: 2; stroke-linecap: square"/>
     <g>
      <use xlink:href="#m6556283031" x="151.6772" y="148.382031" style="fill: #5894c8; stroke: #ffffff; stroke-width: 0.8; stroke-linejoin: miter"/>
     </g>
    </g>
    <g id="text_16">
     <!-- GSPO -->
     <g transform="translate(171.4772 152.232031) scale(0.11 -0.11)">
      <defs>
       <path id="DejaVuSerif-47" d="M 4097 3272 
Q 3988 3856 3641 4136 
Q 3294 4416 2675 4416 
Q 1869 4416 1472 3897 
Q 1075 3378 1075 2328 
Q 1075 1300 1484 772 
Q 1894 244 2688 244 
Q 3041 244 3362 331 
Q 3684 419 3975 594 
L 3975 1797 
L 3097 1797 
L 3097 2131 
L 4609 2131 
L 4609 391 
Q 4194 150 3714 29 
Q 3234 -91 2688 -91 
Q 1631 -91 995 570 
Q 359 1231 359 2328 
Q 359 3434 996 4092 
Q 1634 4750 2713 4750 
Q 3113 4750 3539 4658 
Q 3966 4566 4447 4378 
L 4447 3272 
L 4097 3272 
z
" transform="scale(0.015625)"/>
       <path id="DejaVuSerif-53" d="M 594 225 
L 594 1288 
L 953 1284 
Q 969 753 1261 498 
Q 1553 244 2150 244 
Q 2706 244 2998 464 
Q 3291 684 3291 1106 
Q 3291 1444 3114 1625 
Q 2938 1806 2369 1978 
L 1753 2163 
Q 1084 2366 811 2669 
Q 538 2972 538 3500 
Q 538 4094 959 4422 
Q 1381 4750 2144 4750 
Q 2469 4750 2856 4679 
Q 3244 4609 3681 4475 
L 3681 3481 
L 3328 3481 
Q 3275 3975 2998 4195 
Q 2722 4416 2156 4416 
Q 1663 4416 1405 4214 
Q 1147 4013 1147 3628 
Q 1147 3294 1340 3103 
Q 1534 2913 2163 2725 
L 2741 2553 
Q 3375 2363 3645 2067 
Q 3916 1772 3916 1275 
Q 3916 597 3481 253 
Q 3047 -91 2188 -91 
Q 1803 -91 1404 -12 
Q 1006 66 594 225 
z
" transform="scale(0.015625)"/>
       <path id="DejaVuSerif-50" d="M 1581 2375 
L 2406 2375 
Q 2872 2375 3115 2626 
Q 3359 2878 3359 3353 
Q 3359 3831 3115 4081 
Q 2872 4331 2406 4331 
L 1581 4331 
L 1581 2375 
z
M 353 0 
L 353 331 
L 947 331 
L 947 4331 
L 353 4331 
L 353 4666 
L 2559 4666 
Q 3259 4666 3668 4311 
Q 4078 3956 4078 3353 
Q 4078 2753 3668 2397 
Q 3259 2041 2559 2041 
L 1581 2041 
L 1581 331 
L 2303 331 
L 2303 0 
L 353 0 
z
" transform="scale(0.015625)"/>
       <path id="DejaVuSerif-4f" d="M 2625 244 
Q 3391 244 3781 770 
Q 4172 1297 4172 2328 
Q 4172 3363 3781 3889 
Q 3391 4416 2625 4416 
Q 1856 4416 1465 3889 
Q 1075 3363 1075 2328 
Q 1075 1297 1465 770 
Q 1856 244 2625 244 
z
M 2625 -91 
Q 2150 -91 1751 65 
Q 1353 222 1050 525 
Q 700 875 529 1319 
Q 359 1763 359 2328 
Q 359 2894 529 3339 
Q 700 3784 1050 4134 
Q 1356 4441 1750 4595 
Q 2144 4750 2625 4750 
Q 3641 4750 4266 4084 
Q 4891 3419 4891 2328 
Q 4891 1769 4719 1320 
Q 4547 872 4197 525 
Q 3891 219 3497 64 
Q 3103 -91 2625 -91 
z
" transform="scale(0.015625)"/>
      </defs>
      <use xlink:href="#DejaVuSerif-47"/>
      <use xlink:href="#DejaVuSerif-53" transform="translate(79.882812 0)"/>
      <use xlink:href="#DejaVuSerif-50" transform="translate(148.388672 0)"/>
      <use xlink:href="#DejaVuSerif-4f" transform="translate(215.673828 0)"/>
     </g>
    </g>
    <g id="line2d_29">
     <path d="M 140.6772 164.527969 
L 151.6772 164.527969 
L 162.6772 164.527969 
" style="fill: none; stroke: #b66e1a; stroke-width: 2; stroke-linecap: square"/>
     <g>
      <use xlink:href="#m5eaad62657" x="151.6772" y="164.527969" style="fill: #b66e1a; stroke: #ffffff; stroke-width: 0.8; stroke-linejoin: miter"/>
     </g>
    </g>
    <g id="text_17">
     <!-- GRPO -->
     <g transform="translate(171.4772 168.377969) scale(0.11 -0.11)">
      <defs>
       <path id="DejaVuSerif-52" d="M 3066 2316 
Q 3284 2256 3442 2114 
Q 3600 1972 3725 1716 
L 4403 331 
L 4972 331 
L 4972 0 
L 3872 0 
L 3144 1484 
Q 2934 1916 2759 2042 
Q 2584 2169 2278 2169 
L 1581 2169 
L 1581 331 
L 2241 331 
L 2241 0 
L 353 0 
L 353 331 
L 947 331 
L 947 4331 
L 353 4331 
L 353 4666 
L 2719 4666 
Q 3400 4666 3770 4341 
Q 4141 4016 4141 3419 
Q 4141 2938 3870 2661 
Q 3600 2384 3066 2316 
z
M 1581 2503 
L 2503 2503 
Q 2975 2503 3200 2726 
Q 3425 2950 3425 3419 
Q 3425 3888 3200 4109 
Q 2975 4331 2503 4331 
L 1581 4331 
L 1581 2503 
z
" transform="scale(0.015625)"/>
      </defs>
      <use xlink:href="#DejaVuSerif-47"/>
      <use xlink:href="#DejaVuSerif-52" transform="translate(79.882812 0)"/>
      <use xlink:href="#DejaVuSerif-50" transform="translate(155.175781 0)"/>
      <use xlink:href="#DejaVuSerif-4f" transform="translate(222.460938 0)"/>
     </g>
    </g>
    <g id="line2d_30">
     <path d="M 140.6772 180.673906 
L 151.6772 180.673906 
L 162.6772 180.673906 
" style="fill: none; stroke: #c83e4b; stroke-width: 2.5; stroke-linecap: square"/>
     <g>
      <use xlink:href="#mf9a4446cd6" x="151.6772" y="180.673906" style="fill: #c83e4b; stroke: #ffffff; stroke-width: 0.8; stroke-linejoin: miter"/>
     </g>
    </g>
    <g id="text_18">
     <!-- GEPO -->
     <g transform="translate(171.4772 184.523906) scale(0.11 -0.11)">
      <defs>
       <path id="DejaVuSerif-45" d="M 353 0 
L 353 331 
L 947 331 
L 947 4331 
L 353 4331 
L 353 4666 
L 4109 4666 
L 4109 3628 
L 3725 3628 
L 3725 4281 
L 1581 4281 
L 1581 2719 
L 3109 2719 
L 3109 3303 
L 3494 3303 
L 3494 1753 
L 3109 1753 
L 3109 2338 
L 1581 2338 
L 1581 384 
L 3775 384 
L 3775 1038 
L 4159 1038 
L 4159 0 
L 353 0 
z
" transform="scale(0.015625)"/>
      </defs>
      <use xlink:href="#DejaVuSerif-47"/>
      <use xlink:href="#DejaVuSerif-45" transform="translate(79.882812 0)"/>
      <use xlink:href="#DejaVuSerif-50" transform="translate(152.880859 0)"/>
      <use xlink:href="#DejaVuSerif-4f" transform="translate(220.166016 0)"/>
     </g>
    </g>
   </g>
  </g>
 </g>
 <defs>
  <clipPath id="p9f7d736e5e">
   <rect x="63.92" y="34.5075" width="351.88" height="198.9325"/>
  </clipPath>
 </defs>
</svg>
